<svg version="1.0" xmlns="http://www.w3.org/2000/svg"
 width="84.000000pt" height="156.000000pt" viewBox="0 0 84.000000 156.000000"
 preserveAspectRatio="xMidYMid meet">

<g transform="translate(0.000000,156.000000) scale(0.100000,-0.100000)"
fill="red" stroke="none">
<path d="M304 1168 c-27 -46 -54 -92 -60 -103 -31 -55 -56 -98 -93 -160 -23
-37 -41 -70 -41 -74 0 -3 -9 -17 -20 -31 -26 -34 -26 -96 2 -140 22 -36 42
-72 79 -137 62 -112 170 -154 269 -103 34 17 90 75 90 93 0 3 23 43 52 89 69
110 70 144 10 242 -23 37 -42 71 -42 75 0 4 -5 12 -12 19 -12 12 -15 7 -111
-158 -11 -19 -26 -47 -34 -61 -7 -15 -20 -33 -29 -40 -13 -11 -19 -9 -35 11
-24 32 -23 49 1 80 11 14 20 29 20 33 0 5 8 21 19 35 10 15 28 44 40 65 11 20
30 53 41 72 24 42 25 63 6 99 l-13 26 -27 -40 c-14 -22 -26 -41 -26 -44 0 -2
-18 -34 -41 -71 -22 -37 -49 -83 -60 -101 -10 -19 -28 -50 -39 -69 -11 -20
-20 -40 -20 -45 0 -6 18 -40 40 -76 22 -36 40 -70 40 -74 0 -16 31 -32 52 -26
15 3 37 30 63 77 67 121 74 132 90 148 14 15 18 14 35 -9 11 -14 20 -30 20
-37 0 -6 -22 -48 -50 -93 -27 -45 -50 -85 -50 -89 0 -17 -57 -69 -88 -79 -56
-19 -107 11 -151 91 -22 39 -46 81 -77 134 -21 37 -21 38 59 172 22 35 47 79
58 97 37 66 57 100 88 152 36 62 37 62 12 102 l-19 31 -48 -83z"/>
</g>
</svg>
