<svg width="94" height="94" viewBox="0 0 94 94" fill="none" xmlns="http://www.w3.org/2000/svg">
    <g id="Frame">
        <path id="Vector" d="M46.9999 7.83301C25.4034 7.83301 7.83325 25.4032 7.83325 46.9997C7.83325 68.5962 25.4034 86.1663 46.9999 86.1663C68.5964 86.1663 86.1666 68.5962 86.1666 46.9997C86.1666 25.4032 68.5964 7.83301 46.9999 7.83301ZM46.9999 78.333C29.7235 78.333 15.6666 64.2761 15.6666 46.9997C15.6666 29.7233 29.7235 15.6663 46.9999 15.6663C64.2763 15.6663 78.3333 29.7233 78.3333 46.9997C78.3333 64.2761 64.2763 78.333 46.9999 78.333Z" fill="#62C540"/>
        <path id="Vector_2" d="M39.1627 53.2153L30.1583 44.2266L24.6279 49.7726L39.1705 64.2838L65.4357 38.0186L59.8975 32.4805L39.1627 53.2153Z" fill="#62C540"/>
    </g>
</svg>
